<svg xmlns="http://www.w3.org/2000/svg" width="147.162" height="147.162" viewBox="0 0 147.162 147.162">
  <g id="cannes-lions-logo-vector-1" opacity="0.709">
    <path id="Path_44" data-name="Path 44" d="M0,0H147.162V147.162H0Z" fill="rgba(255,255,255,0)" fill-rule="evenodd"/>
    <path id="Path_45" data-name="Path 45" d="M97.8,75.362v-.5c.82-.378.82-.567.693-1.386,3.024-1.134,4.788-4.159,6.238-6.8.5-1.386,1.449-3.276.5-5.166-2.583-5.229-6.679-5.859-8.947-10.584-1.26-2.709-3.464-1.449-4.851-1.008-1.638-.063-7.56-1.7-7.937-3.213q2.288-.393,4.6-.63c3.276.63,6.173.63,7.245-.315,3.212,0,4.346,1.386,5.166,2.835,1.827,5.733,1.638,6.111,6.489,9.513a7.133,7.133,0,0,1,2.206,6.048C108.825,69.5,102.9,74.481,97.8,75.362ZM20.308,131.056c-1.071-.5-2.08-1.2-3.15-1.638a14.23,14.23,0,0,1-3.4-1.7c-1.638-1.575-1.7-3.717.63-6.867a5.408,5.408,0,0,1,4.221-2.08c.882,0,1.449-.378,1.386-.882-1.07.063-2.142.126-3.213.252v-.566c5.23-2.332,7.245-1.2,10.459,0,.441.189,1.008,0,1.575.189a53.441,53.441,0,0,0,7.245-2.583c6.048-4.159,11.844-9.64,17.956-14.68a62.491,62.491,0,0,1,6.552-5.04c1.512-.945,3.087-1.764,4.473-2.71.819-.566,1.512-1.386,2.268-1.953a56.964,56.964,0,0,1,7.875-4.41c1.449-.693,2.773-1.638,4.283-2.269a.912.912,0,0,1-.125-.441c-3.087.693-12.789,2.961-14.175,6.048-.126,0-.189.252-.378,0-.063-.063,0-.378-.063-.5a39.7,39.7,0,0,0,2.52-3.276,29.688,29.688,0,0,1,3.339-2.2c0-.063-.189-.252-.189-.315-4.725,1.449-6.615,3.78-7.748,7.119-.315.944-1.828,1.26-3.277,1.448-4.536.441-6.111.756-8.757,2.394-.378.252-.5.819-.945,1.071-.252.189-.5.315-.756.5,0-.252-.253-.315-.126-.567a57.873,57.873,0,0,1,5.1-6.489c2.835-2.206,6.174-3.717,6.741-5.1-3.969.252-8.442,1.449-10.71,4.851-.189.063-.378.063-.567.126a11.124,11.124,0,0,1,8-7.875c.567-.189.757-.63,1.323-.819.693-3.15-.252-4.22-1.827-4.472-2.268-.945-4.851-.693-5.922-3.654,1.764-.063,2.394-.315,3.087-1.512.252-.5,1.386-.252,2.646.378.756,0,1.323-.126,2.079-.126-.063.315-.063.63-.126.945a9.092,9.092,0,0,0-2.457,1.575,2.349,2.349,0,0,0-.063.693c5.166,3.339,8.127,3.654,12.222.5.378-1.764,0-2.583-1.26-2.835-1.512.5-3.969,2.079-5.922,2.016.063-.252.063-.441.126-.63,2.142-.378,3.717-3.906,5.8-7.875A120.3,120.3,0,0,1,74.051,53.5c1.764-2.394,3.339-4.6,5.1-5.859a1.386,1.386,0,0,1,.315-.5h.5c0,.567-.188,3.213,1.072,3.213a4.285,4.285,0,0,0,.125-.882h1.386c4.094,6.489,6.425,6.237,13.293,9.072,5.544,4.347,2.2,7.5-.568,10.143a7.465,7.465,0,0,0-.692,1.2,8.045,8.045,0,0,1-.064,1.7c-.629,2.394-2.331,5.481-2.079,6.615a41.141,41.141,0,0,0,8.316-2.331c3.592-1.449,7.12-.882,13.231-.63v.315a67.944,67.944,0,0,0-9.01,1.638c-5.04,1.323-10.143,3.4-14.868,5.166A86.186,86.186,0,0,0,77.64,88.72,138.109,138.109,0,0,0,61.827,99.367c-8,7.686-14.742,13.608-22.933,17.64a51.9,51.9,0,0,1-14.553,4.662c-2.08.693-3.78,1.828-4.347,3.087-.378.818.063,2.016.819,3.339,1.386.063,1.134-2.645,2.331-4.6A4.712,4.712,0,0,1,25.1,122.8a36.39,36.39,0,0,0,5.985-.126c1.2-.189,2.331-.882,3.78-1.134a.682.682,0,0,1-.063.315,65.957,65.957,0,0,1-10.08,3.024c-.252.63-.567,1.322-.189,1.764.63.5,1.7.063,3.15.189,6.741,1.954,11.088.378,13.041-1.2a61.924,61.924,0,0,1,9.955-9.262,32.49,32.49,0,0,1,6.174-4.032c4.788-2.2,10.647-3.213,18.586-4.284a5.84,5.84,0,0,0,2.771-1.134,3.939,3.939,0,0,0,1.009-1.7c.692-1.638.818-2.9,1.385-4.094,1.07-2.268,2.835-3.969,7.183-5.418,3.212-1.008,9.324-.441,13.671-1.071a12.181,12.181,0,0,0,2.206-.126,5.824,5.824,0,0,0,1.512-1.07c3.4-4.978,7.937-10.71,13.608-13.671a19.068,19.068,0,0,1,4.788-1.764c-.063.315.063.252,0,.5-.315.378-.818.756-1.2,1.26-1.89,2.458-4.094,6.174-1.954,9.514a.723.723,0,0,1-.377.756c-1.638.692-2.9,3.654-2.9,5.922-2.583,4.346-8.442,6.741-15.687,5.86-3.969-.5-8.127-.5-10.459.629-.944.441-1.2,1.26-1.574,2.016-.189,1.135-.5,3.528-1.133,4.411a10.012,10.012,0,0,1-3.78,2.772,18.764,18.764,0,0,1-5.544,2.079c-3.277.566-7.12.189-10.27.189A54.474,54.474,0,0,0,56.03,118.9c-2.9,1.7-5.355,4.158-5.166,5.734,0,.315.441.063.63.315a112.692,112.692,0,0,1,15.183-.441c16.192-2.772,32.068-6.3,49.96-3.024,9.955.315,19.972,1.008,30.115,1.7v.315a18.925,18.925,0,0,0-3.276,0,23.075,23.075,0,0,1-5.04.63c-12.6-.315-28.728-1.323-40.005,1.764.063.189.063.378.125.63,12.223.252,24.571,1.638,36.794,1.953v.315c-.883,0-1.827.063-2.772.126-1.512.063-2.772.441-4.411.567-2.016.126-6.048-.126-8.19-.063-1.576.126-2.395.5-3.465.63a33.865,33.865,0,0,1-3.78.126c-18.209-.126-17.957-.819-20.728,0,.252.189.441.189.693.63-6.111,0-12.411.189-18.459.126-1.575-.63-3.529-.378-5.356-.378a42.443,42.443,0,0,0-19.72-.378c-3.968-.378-7.119.063-7.812.441-1.449.252-2.583-.125-3.843.126-3.717.631-6.111-.126-9.324-.882a26.947,26.947,0,0,0-7.874,1.195Zm-4.6-5.986c-1.827-2.142.063-4.346,2.331-4.662,1.828-.252,3.529-1.26,4.033-.756a4.646,4.646,0,0,1-.757.567A6.469,6.469,0,0,0,18.1,122.8a8.38,8.38,0,0,1-1.134,1.638A3.2,3.2,0,0,1,15.708,125.071Zm60.985-51.6V61.943c-.189,0-.315.063-.5.063-2.645,2.835-4.662,4.473-5.292,9.513a13.7,13.7,0,0,1-3.087-.944c-.315-2.206,1.449-3.15,3.213-4.978,1.449-1.449,2.836-3.15,4.285-4.725a29.754,29.754,0,0,0,4.473-5.985c.188.063.629.063.756.189.189,5.292,2.835,7.938,3.213,9.009a2.756,2.756,0,0,1-.505,1.071A12.819,12.819,0,0,1,80.473,67.3c-1.827,3.4-1.827,3.4-3.149,6.111C77.135,73.41,76.946,73.473,76.694,73.473Zm3.213,5.482c-.188-.063-.566-.315-.756-.378.883-1.638,2.584-1.89,2.9-4.285a3.761,3.761,0,0,1,3.087-3.4,21.7,21.7,0,0,0,2.331-.882,3.3,3.3,0,0,0,1.449-2.268c0-.945,0-2.016-.063-2.9-1.638-2.2-5.608-5.544-5.292-8.5,1.2.945,1.574,1.953,7.245,3.717,2.2,1.2,3.968,3.024,2.52,5.04-3.088,1.828-3.717,2.836-4.032,5.544a10.768,10.768,0,0,1-1.2,3.969,9.1,9.1,0,0,1-8.191,4.347ZM46.454,80.907c-2.206-3.276-3.717-5.67-4.1-7.56-.692-3.213.819-5.1.252-8.442-1.134-2.645-2.583-5.544-3.528-8-1.575-7.812,6.993-13.419,9.576-19.971,2.71-8.316,2.268-5.292,3.024-7.245.063-.189-.063-.189-.063-.441-3.465.5-5.8,1.323-7.245,2.583-4.22,3.529-2.079,9.765-6.8,16.192-4.788,3.339-4.914,5.544-4.536,8.379a23.593,23.593,0,0,0,3.15,8.254,32.433,32.433,0,0,1,2.961,5.922C37,69,34.735,65.6,32.782,62.258c-2.394-4.033-3.339-8.506-2.2-11.908a28.945,28.945,0,0,0,6.174-13.356c.566-2.772,1.512-4.978,3.843-6.615a27.563,27.563,0,0,1,7.434-2.961c3.087-.945,6.741-1.764,9.45-3.528,3.843-2.394,5.8-2.268,7.371-2.079a34.129,34.129,0,0,1,6.741,2.646c0,.189.063.441.063.63-4.788-2.52-6.741-2.394-11.781.126a3.017,3.017,0,0,0,0,.756c4.347,0,6.111,1.134,9.955,3.339,1.953-.756,6.237,2.142,7.37,3.213.316.756.945,1.323.631,2.016-.756,1.764-1.26,4.725-2.772,6.174s-2.457,2.71-2.645,4.41c-.189,0-.378-.126-.5-.126.819-5.292,5.292-8.568.567-12.978-9.136-7.5-16.128-6.678-19.657.819a20.109,20.109,0,0,0-1.26,2.9,49.836,49.836,0,0,0-.756,5.8c-6.174,14.617-9.45,9.639-3.591,24.445a14.279,14.279,0,0,1-.189,5.23c-1.26,4.094-2.2,5.985-.252,9.7h-.315Zm29.8-39.88c1.009-6.237,8.506-7.119,4.536-14.113-1.764-.063-7.561,1.2-7.938-1.323,1.386.126,2.772.189,4.032.189.441,0,.441-.441.883-.441,4.661,0,8.883,2.2,6.677,8.127-.188.441-.252,1.2-.5,1.7-.125.126-.063.378-.377.63a3.872,3.872,0,0,0-2.268.945c-.693,1.764-1.828,3.4-3.276,3.465a2.162,2.162,0,0,0-1.26.882c-.189,0-.315-.063-.5-.063ZM68,42.665c.882-.883,1.7-4.662-.693-5.23-4.284-.567-3.843-1.26-6.363-4.536-4.347-.252-3.276,7.749-7.686,9.2-.252.063.063-.5-.189-.441,1.134-1.386,2.583-2.206,2.961-3.907a17.307,17.307,0,0,1,1.512-4.725,2.254,2.254,0,0,1,1.638-1.071,3.926,3.926,0,0,1,2.142.252,13.151,13.151,0,0,1,2.52,1.512,11.209,11.209,0,0,0,4.1,1.008c3.024.252,3.276.567,4.347,3.024a2.256,2.256,0,0,1-.944,1.638,4.843,4.843,0,0,0-1.512,3.276c-.378.063-1.323.566-1.7.5-.253-.063.124-.63-.127-.5Zm15.624,1.386a.8.8,0,0,0,.063-.378c4.662-1.89,10.773-7.623,7.5-12.916-2.393-2.646-5.04-4.158-6.489-7.245a2.555,2.555,0,0,1,1.2,0c3.151,1.008,8.254,7.434,10.017,9.513,1.638,2.52,1.26,4.788-.5,6.3A21.616,21.616,0,0,1,83.624,44.051Zm-9.136,1.324c1.323-2.835,4.788-4.1,7.434-5.481,2.961-2.206,4.284-5.356,5.356-8.694,2.079.882,1.26,4.851.44,6.615A27.674,27.674,0,0,1,74.489,45.374ZM89.61,46c-.189-.126-1.26-.5-1.512-.63,0-.126.189-.189.189-.253,3.653-3.276,3.4-3.213,8.19-3.968.631-4.347,2.079-3.969,5.671-6.3.818-1.134-.189-2.458-4.725-4.411a2.638,2.638,0,0,1-1.135-1.26,8.9,8.9,0,0,1,4.032,1.953c1.512-.693,4.221,1.071,5.042,1.449.377,4.032-.883,5.1-3.907,7.056.189,2.9-.127,3.087-1.2,4.537-7.373-.693-7.183,1.2-10.649,1.827ZM51.241,58.1c-1.2-2.583-.882-4.536-.63-7.182h.567a23.374,23.374,0,0,0,.567,7.182Zm57.773,1.26c.125-2.52.315-4.914-.441-7.245a6.642,6.642,0,0,1-2.331-1.575,12.326,12.326,0,0,0-5.544-4.411v-.315c2.835.063,3.213.252,6.237,2.835,1.322,1.134,6.3,4.536,6.929,5.355a2.941,2.941,0,0,1,.379,1.2,4.287,4.287,0,0,1-2.583,3.78,4.374,4.374,0,0,1-2.646.379ZM61.259,65.912a16.9,16.9,0,0,0,1.134-5.859c-1.008-.566-2.016-.189-3.024-.126v-.315c1.323-.378,3.654-1.449,4.221-2.9a1.8,1.8,0,0,0-.126-1.386c-8.064,4.536-5.292,2.772-5.355,4.851a20.545,20.545,0,0,1-.063,4.788c-.189-.063-.5-.126-.693-.189-.315-1.89-1.134-2.331-1.575-3.4.063-1.071,0-2.52.063-4.6,2.268-.126,5.355.315,8.946-4.41,2.394-.441,4.914-1.7,5.985-4.032h.5c-.063.315.127.63.063.945-.441.819-1.071,1.7-1.7,2.961-.819,1.638-1.7,3.717-2.836,5.544-1.7,2.709-3.591,5.544-5.04,8.064-.189,0-.377.063-.5.063Zm-10.647,4.6a.862.862,0,0,0-.252-.189,95.74,95.74,0,0,1,1.827-11.4h.63c-.5,3.529-1.512,7.561-2.2,11.593Z" transform="translate(-2.974 -5.138)" fill-rule="evenodd"/>
  </g>
</svg>
