<svg xmlns="http://www.w3.org/2000/svg" xmlns:xlink="http://www.w3.org/1999/xlink" width="130.459" height="130.459" viewBox="0 0 59.582 130.459">
  <defs>
    <clipPath id="clip-path">
      <rect id="Rectangle_31" data-name="Rectangle 31" width="130.459" height="130.459" fill="none"/>
    </clipPath>
  </defs>
  <g id="Group_71" data-name="Group 71" opacity="0.709">
    <g id="Group_70" data-name="Group 70" clip-path="url(#clip-path)">
      <path id="Path_46" data-name="Path 46" d="M90.366.063Q89.619,1.781,88.873,3.5a83.474,83.474,0,0,0-5.749,18.554A49.67,49.67,0,0,0,86.81,51.788c2.077,4.6,4.854,8.8,7.408,13.131A65.571,65.571,0,0,1,101.6,82.043a34.561,34.561,0,0,1-3.529,26.063,39.476,39.476,0,0,1-29.48,21.051c-3.625.591-7.3.919-10.961,1.222-1.98.164-3.985.029-5.722.029,1.221-.369,2.735-.793,4.227-1.282,8.235-2.7,15.975-6.36,22.683-11.95a35.567,35.567,0,0,0,11.042-15.052,29.116,29.116,0,0,0,1.064-17.23c-1.66-6.958-4.678-13.342-8.1-19.562-1.8-3.275-3.73-6.479-5.493-9.773a26.581,26.581,0,0,1-2.854-15.519c.636-6.426,2.728-12.437,5.174-18.343A216.544,216.544,0,0,1,89.867.621c.116-.212.249-.414.375-.62l.125.062" transform="translate(-43.144 -0.001)"/>
      <path id="Path_47" data-name="Path 47" d="M136.507,233.354c0,1.209.01,2.407,0,3.605a27.747,27.747,0,0,0,4.431,15.23,117.254,117.254,0,0,1,10.123,19.971,44.612,44.612,0,0,1,3.082,11.868,24.329,24.329,0,0,1-1.9,11.444,38.966,38.966,0,0,1-8.526,12.638,2.1,2.1,0,0,1-.3.232c.607-1.938,1.323-3.884,1.824-5.884a34.624,34.624,0,0,0-.176-16.617c-1.078-4.55-3.114-8.724-5.091-12.911q-3.491-7.393-7.215-14.674a18.666,18.666,0,0,1-1.857-10.477,29.9,29.9,0,0,1,5.371-14.107,2.78,2.78,0,0,1,.273-.316c.012-.012.052,0-.039,0" transform="translate(-108.724 -193.969)"/>
      <path id="Path_48" data-name="Path 48" d="M98.091,416.48a31.908,31.908,0,0,0,5.573-6.842,23.717,23.717,0,0,0,2.328-19.713,141.247,141.247,0,0,0-8.456-21.641,12.152,12.152,0,0,1-1.094-6.96A30.789,30.789,0,0,1,99.589,351.2c1.476,6.976,5.409,12.815,8.287,19.108a89.817,89.817,0,0,1,5.776,15c1.556,6.086,1.745,12.141-.654,18.051-2.768,6.819-8.012,10.926-14.907,13.119" transform="translate(-80.078 -291.93)"/>
      <path id="Path_49" data-name="Path 49" d="M18.653,510.8c1.006,2.443,2.051,4.712,2.882,7.056a35.353,35.353,0,0,1,2.047,13.921,22.928,22.928,0,0,1-3.275,11.2c-3.485,5.519-9.186,7.361-15.208,4.8-1.764-.75-3.4-1.793-5.1-2.7l.114-.219c1.335.216,2.665.472,4.007.639a11.266,11.266,0,0,0,5.717-.679,7.067,7.067,0,0,0,4.512-6.218,29.971,29.971,0,0,0-.069-5.872c-.256-2.676-.939-5.321-1.067-8a19.165,19.165,0,0,1,4.946-13.517,5.959,5.959,0,0,1,.494-.415" transform="translate(0 -424.594)"/>
    </g>
  </g>
</svg>
