<svg xmlns="http://www.w3.org/2000/svg" width="16.716" height="18.544" viewBox="0 0 16.716 18.544">
  <defs>
    <style>
      .cls-1 {
        fill: rgba(77, 77, 77, 1);
        stroke: rgba(77, 77, 77, 1);
      }
    </style>
  </defs>
  <path id="angle-double-right" class="cls-1" d="M17.215,8.771a2.542,2.542,0,0,1-.749,1.809L9.675,17.435a.365.365,0,1,1-.519-.515l6.792-6.856a1.827,1.827,0,0,0,0-2.585L9.156.623A.365.365,0,1,1,9.675.108l6.792,6.856A2.538,2.538,0,0,1,17.215,8.771Zm-7.31,0a1.814,1.814,0,0,0-.533-1.29L2.126.109A.365.365,0,1,0,1.6.621L8.853,8a1.1,1.1,0,0,1,0,1.552L1.605,16.921a.366.366,0,0,0,.521.513l7.245-7.37a1.816,1.816,0,0,0,.535-1.292Z" transform="translate(-0.999 0.501)"/>
</svg>
