<svg xmlns="http://www.w3.org/2000/svg" viewBox="0 0 17.996 17.996"><path d="M18,6V1.5A1.5,1.5,0,0,0,16.5,0H12V.75h4.5a.7.7,0,0,1,.069.014L8.939,8.39,1.332.784A.735.735,0,0,1,1.5.75H6V0H1.5A1.5,1.5,0,0,0,0,1.5V6H.75V1.5a.7.7,0,0,1,.04-.2L8.409,8.92.764,16.565A.7.7,0,0,1,.75,16.5V12H0v4.5A1.5,1.5,0,0,0,1.5,18H6v-.75H1.5a.743.743,0,0,1-.295-.061L8.939,9.451l7.756,7.756a.731.731,0,0,1-.2.04H12V18h4.5A1.5,1.5,0,0,0,18,16.5V12h-.75v4.5a.735.735,0,0,1-.034.167L9.469,8.92,17.185,1.2a.746.746,0,0,1,.061.295V6Z"/></svg>
