<svg xmlns="http://www.w3.org/2000/svg" width="18.564" height="18.543" viewBox="0 0 18.564 18.543">
  <defs>
    <style>
      .cls-1 {
        fill: rgba(77, 77, 77, 1);
      }
    </style>
  </defs>
  <path id="volume-mute" class="cls-1" d="M18.451,11.7a.387.387,0,0,1-.547.546L15.473,9.82l-2.431,2.431A.387.387,0,0,1,12.5,11.7l2.431-2.431L12.5,6.843a.386.386,0,0,1,.546-.546l2.431,2.431L17.9,6.3a.386.386,0,0,1,.546.546L16.018,9.273,18.449,11.7ZM10.818,1.326V17.232A1.316,1.316,0,0,1,9.5,18.549a1.3,1.3,0,0,1-.451-.08,10.976,10.976,0,0,1-4.667-3.619l-.116-.161-.792,0A3.487,3.487,0,0,1,0,11.2V7.346A3.476,3.476,0,0,1,3.476,3.869h.005l.787,0,.115-.16A10.7,10.7,0,0,1,9.087.08a1.271,1.271,0,0,1,1.169.164,1.328,1.328,0,0,1,.563,1.083Zm-.773,0A.554.554,0,0,0,9.81.875.5.5,0,0,0,9.346.808,9.865,9.865,0,0,0,5.011,4.164l-.231.321a.388.388,0,0,1-.314.161h0l-.984,0h0a2.7,2.7,0,0,0-2.7,2.7v3.859a2.713,2.713,0,0,0,2.705,2.709l.99,0a.386.386,0,0,1,.312.161l.231.321a10.3,10.3,0,0,0,4.307,3.346.542.542,0,0,0,.727-.511V1.326Z" transform="translate(0 -0.005)"/>
</svg>
