<svg xmlns="http://www.w3.org/2000/svg" viewBox="0 0 130.734 120.099">
  <g transform="translate(-96 -89.617)">
    <g transform="translate(96 89.617)">
      <path  d="M75.072,8.561V111.577a8.522,8.522,0,0,1-8.518,8.528,8.413,8.413,0,0,1-2.923-.52c-10.825-3.974-22.97-13.4-30.227-23.441L32.654,95.1,22.52,95.087A22.585,22.585,0,0,1,0,72.542V47.55A22.52,22.52,0,0,1,22.52,25.03h.035l10.1.015.746-1.036C40.9,13.635,52.852,4.4,63.862.488a8.228,8.228,0,0,1,7.572,1.061,8.6,8.6,0,0,1,3.643,7.011Zm-5,0a3.59,3.59,0,0,0-1.521-2.923A3.266,3.266,0,0,0,65.538,5.2C55.419,8.8,44.4,17.328,37.463,26.937l-1.5,2.077a2.725,2.725,0,0,1-2.037,1.041L22.55,30.04h-.025A17.513,17.513,0,0,0,5.009,47.555V72.547A17.571,17.571,0,0,0,22.53,90.093l11.41.015a2.479,2.479,0,0,1,2.022,1.041l1.5,2.077c6.616,9.158,18.086,18.071,27.895,21.674a3.508,3.508,0,0,0,4.709-3.308V8.561Z" transform="translate(0 -0.005)" fill="rgba(77, 77, 77, 1)"/>
    </g>
    <path d="M71.267,44.248a1.914,1.914,0,0,0,.189-2.69c-.606-.682-1.212-1.4-1.894-2.046a34.026,34.026,0,0,0-48.192,0c-.644.644-1.288,1.326-1.894,2.046a1.907,1.907,0,1,0,2.879,2.5c.53-.644,1.1-1.25,1.667-1.819a30.367,30.367,0,0,1,42.888,0c.606.606,1.137,1.212,1.667,1.819a1.827,1.827,0,0,0,1.44.644,1.956,1.956,0,0,0,1.25-.455ZM90.324,25.684a1.913,1.913,0,0,0,.152-2.69c-.682-.758-1.4-1.478-2.122-2.235A60.551,60.551,0,0,0,2.617,20.8c-.72.72-1.44,1.478-2.122,2.235a1.879,1.879,0,0,0,.152,2.69,1.913,1.913,0,0,0,2.69-.152c.644-.72,1.288-1.4,1.97-2.084a56.892,56.892,0,0,1,80.4,0c.682.682,1.326,1.364,1.97,2.084a1.877,1.877,0,0,0,1.4.644,1.744,1.744,0,0,0,1.25-.493Z" transform="translate(229.724 103.522) rotate(90)" fill="rgba(77, 77, 77, 1)"/>
  </g>
</svg>
