<svg xmlns="http://www.w3.org/2000/svg" width="120.443" height="120.309" viewBox="0 0 120.443 120.309">
  <path id="volume-mute" d="M119.709,75.907a2.508,2.508,0,0,1-3.549,3.544L100.389,63.68,84.617,79.452a2.508,2.508,0,0,1-3.549-3.544L96.839,60.136,81.068,44.365a2.506,2.506,0,0,1,3.544-3.544l15.771,15.771L116.155,40.82a2.506,2.506,0,0,1,3.544,3.544L103.928,60.136,119.7,75.907ZM70.184,8.576v103.2a8.537,8.537,0,0,1-8.532,8.542,8.428,8.428,0,0,1-2.928-.521c-10.843-3.98-23.01-13.415-30.28-23.482l-.752-1.043-5.138-.015A22.624,22.624,0,0,1,0,72.664V47.628A22.55,22.55,0,0,1,22.554,25.069h.035l5.1.015.747-1.038C35.949,13.659,47.926,4.4,58.955.489A8.245,8.245,0,0,1,66.54,1.552a8.616,8.616,0,0,1,3.65,7.023Zm-5.013,0a3.6,3.6,0,0,0-1.524-2.928,3.27,3.27,0,0,0-3.013-.436C50.5,8.811,39.459,17.359,32.51,26.984l-1.5,2.08a2.515,2.515,0,0,1-2.035,1.043h-.005l-6.387-.015h-.025A17.544,17.544,0,0,0,5.018,47.638V72.674A17.6,17.6,0,0,0,22.569,90.25l6.422.015a2.5,2.5,0,0,1,2.025,1.043l1.5,2.08c6.627,9.179,18.118,18.1,27.943,21.712a3.514,3.514,0,0,0,4.717-3.314V8.576Z" transform="translate(0 -0.005)" fill="rgba(77, 77, 77, 1)"/>
</svg>
