<svg id="Component_23_1" data-name="Component 23 – 1" xmlns="http://www.w3.org/2000/svg" width="29.277" height="24.466" viewBox="0 0 29.277 24.466">
  <defs>
    <style>
      .cls-1 {
        fill: #231f20;
      }
    </style>
  </defs>
  <path id="Path_25" data-name="Path 25" class="cls-1" d="M-2036.6-2359.675a9.533,9.533,0,0,0-4.3,1v-6.316h-5.315v24.466h5.315v-1a9.531,9.531,0,0,0,4.224,1,9.575,9.575,0,0,0,9.612-9.539A9.576,9.576,0,0,0-2036.6-2359.675Zm-.052,13.835a4.259,4.259,0,0,1-4.244-4.276,4.259,4.259,0,0,1,4.276-4.244,4.259,4.259,0,0,1,4.244,4.276A4.26,4.26,0,0,1-2036.649-2345.84Z" transform="translate(2046.209 2364.99)"/>
  <path id="Path_26" data-name="Path 26" class="cls-1" d="M-2013.929-2355.451c0,.012,0,.024,0,.037h0v14.89h5.315v-9.576h2.856v-5.315h-2.855v-.016a4.26,4.26,0,0,1,4.261-4.243v-5.315A9.575,9.575,0,0,0-2013.929-2355.451Z" transform="translate(2033.631 2364.99)"/>
</svg>
