<svg xmlns="http://www.w3.org/2000/svg" width="398.87" height="119.621" viewBox="0 0 398.87 119.621">
  <path fill="rgb(0, 0, 0)" d="M669.046,458.758a34.427,34.427,0,0,0-15.529,3.616V439.547H634.308v88.426h19.209v-3.612a34.609,34.609,0,1,0,15.529-65.6Zm-.19,50.005a15.4,15.4,0,1,1,15.458-15.339A15.4,15.4,0,0,1,668.856,508.764Z" transform="translate(-634.308 -439.148)"/>
  <rect fill="rgb(0, 0, 0)" width="19.21" height="69.216" transform="translate(72.221 19.609)"/>
  <path fill="rgb(0, 0, 0)" d="M728.139,452.076a34.61,34.61,0,1,0,0,61.987v3.616a15.392,15.392,0,0,1-14.9,11.585v19.209a33.568,33.568,0,0,0,26.54-13,34.7,34.7,0,0,0,7.573-17.8V448.462H728.139ZM712.681,498.47a15.4,15.4,0,1,1,15.457-15.341A15.4,15.4,0,0,1,712.681,498.47Z" transform="translate(-583.695 -428.852)"/>
  <path fill="rgb(0, 0, 0)" d="M763.368,448.462A34.608,34.608,0,1,0,797.845,483.2,34.606,34.606,0,0,0,763.368,448.462Zm-.188,50.005a15.4,15.4,0,1,1,15.455-15.339A15.4,15.4,0,0,1,763.18,498.468Z" transform="translate(-525.371 -428.852)"/>
  <path fill="rgb(0, 0, 0)" d="M797.118,448.462A34.608,34.608,0,1,0,831.595,483.2,34.606,34.606,0,0,0,797.118,448.462Zm-.187,50.005a15.4,15.4,0,1,1,15.455-15.339A15.4,15.4,0,0,1,796.931,498.468Z" transform="translate(-486.391 -428.852)"/>
  <path fill="rgb(0, 0, 0)" d="M732.033,474.095a15.4,15.4,0,0,1,15.4-15.337V439.549a34.6,34.6,0,0,0-34.608,34.473c0,.045,0,.088,0,.131h0v53.818h19.209V493.364h10.322V474.153h-10.32Z" transform="translate(-543.626 -439.146)"/>
  <path fill="rgb(0, 0, 0)" d="M815.339,493.425c0-.022,0-.039,0-.058h10.32V474.155H815.339V439.547H796.13v53.82h0c0,.043,0,.086,0,.129a34.607,34.607,0,0,0,34.609,34.475V508.762A15.4,15.4,0,0,1,815.339,493.425Z" transform="translate(-447.412 -439.148)"/>
  <path fill="rgb(0, 0, 0)" d="M827.117,444.116a7.919,7.919,0,0,0-4.135-4.137,7.7,7.7,0,0,0-6.038,0,7.892,7.892,0,0,0-4.137,4.137,7.7,7.7,0,0,0,0,6.038,7.893,7.893,0,0,0,4.137,4.138,7.7,7.7,0,0,0,6.038,0,7.92,7.92,0,0,0,4.135-4.138,7.7,7.7,0,0,0,0-6.038Zm-1.263,5.506a6.373,6.373,0,0,1-3.4,3.4,6.41,6.41,0,0,1-4.974,0,6.372,6.372,0,0,1-3.4-3.4,6.41,6.41,0,0,1,0-4.974,6.371,6.371,0,0,1,3.4-3.4,6.41,6.41,0,0,1,4.974,0,6.372,6.372,0,0,1,3.4,3.4,6.434,6.434,0,0,1,0,4.974Z" transform="translate(-428.864 -439.362)"/>
  <path fill="rgb(0, 0, 0)" d="M820.371,445.313a2.352,2.352,0,0,0,.6-1.756,2.541,2.541,0,0,0-.761-1.985,3.463,3.463,0,0,0-2.373-.687H814.41v8.878h1.629v-3.635h1.192l2.215,3.635h1.713l-2.3-3.76A2.513,2.513,0,0,0,820.371,445.313Zm-2.388-.595c-.25.019-.5.03-.752.03h-1.192v-2.485h1.192c.25,0,.5.006.752.019a2.09,2.09,0,0,1,.679.146,1.231,1.231,0,0,1,.491,1.754,1.146,1.146,0,0,1-.491.377A2.271,2.271,0,0,1,817.983,444.719Z" transform="translate(-426.3 -437.603)"/>
</svg>
