<svg xmlns="http://www.w3.org/2000/svg" width="38.172" height="38.172" viewBox="0 0 38.172 38.172">
  <defs>
    <style>
      .cls-1 {
        fill: #fff;
      }
    </style>
  </defs>
  <g id="Group_75" data-name="Group 75" transform="translate(-1325.807 -301.557)">
    <g id="video" transform="translate(1321.807 297.557)">
      <path id="Path_42" data-name="Path 42" class="cls-1" d="M33.992,4H12.18A8.189,8.189,0,0,0,4,12.18V33.992a8.189,8.189,0,0,0,8.18,8.18H33.992a8.189,8.189,0,0,0,8.18-8.18V12.18A8.189,8.189,0,0,0,33.992,4Zm0,1.363a6.824,6.824,0,0,1,6.816,6.816V14.3h-9.6L28.976,5.363Zm-6.422,0L29.807,14.3H18.6L16.362,5.363ZM5.363,12.18A6.824,6.824,0,0,1,12.18,5.363h2.777L17.193,14.3H5.363ZM40.809,33.992a6.824,6.824,0,0,1-6.816,6.816H12.18a6.824,6.824,0,0,1-6.816-6.816V15.666c6.324,0,18.974,0,25.293,0,.05-.007,10.1.005,10.152,0Z"/>
      <path id="Path_43" data-name="Path 43" class="cls-1" d="M35.134,35.287l-7.858-3.929a2.058,2.058,0,0,0-2.96,1.829v7.857a2.058,2.058,0,0,0,2.96,1.829l7.857-3.929a2.058,2.058,0,0,0,0-3.658Zm-.61,2.439-7.858,3.929a.682.682,0,0,1-.987-.61V33.187a.67.67,0,0,1,.324-.58.7.7,0,0,1,.663-.03l7.858,3.929a.685.685,0,0,1,0,1.22Z" transform="translate(-6.468 -8.643)"/>
    </g>
  </g>
</svg>
