<svg xmlns="http://www.w3.org/2000/svg" width="48.981" height="31.1" viewBox="0 0 48.981 31.1">
  <defs>
    <style>
      .cls-2 {
        fill: #fff;
      }
    </style>
  </defs>
  <g id="group" transform="translate(0 -92.25)">
    <g id="Group_34" data-name="Group 34" transform="translate(0 92.25)">
      <path id="Path_31" data-name="Path 31" class="cls-2" d="M42.362,105.934a5.592,5.592,0,1,0-6.416,0,9.689,9.689,0,0,0-3.3,1.938,12.538,12.538,0,0,0-4.536-2.471,7.084,7.084,0,1,0-7.327,0,12.642,12.642,0,0,0-4.487,2.442,9.768,9.768,0,0,0-3.266-1.9,5.592,5.592,0,1,0-6.416,0A9.816,9.816,0,0,0,0,115.219v.64a.042.042,0,0,0,.039.039H11.891a13.035,13.035,0,0,0-.107,1.638v.659a5.154,5.154,0,0,0,5.156,5.156H31.963a5.154,5.154,0,0,0,5.156-5.156v-.659a13.034,13.034,0,0,0-.107-1.638h11.93a.042.042,0,0,0,.039-.039v-.64A9.853,9.853,0,0,0,42.362,105.934Zm-7.249-4.584a4.041,4.041,0,1,1,4.119,4.041h-.155A4.035,4.035,0,0,1,35.112,101.35ZM18.889,99.334a5.534,5.534,0,1,1,5.854,5.524H24.1A5.542,5.542,0,0,1,18.889,99.334ZM5.747,101.35a4.041,4.041,0,1,1,4.119,4.041H9.711A4.042,4.042,0,0,1,5.747,101.35Zm6.416,12.987H1.57a8.281,8.281,0,0,1,8.16-7.395h.116a8.194,8.194,0,0,1,5.282,1.967A12.725,12.725,0,0,0,12.163,114.337Zm23.386,3.857a3.611,3.611,0,0,1-3.605,3.605H16.921a3.611,3.611,0,0,1-3.605-3.605v-.659A11.133,11.133,0,0,1,24.1,106.419c.107.01.223.01.33.01s.223,0,.33-.01a11.133,11.133,0,0,1,10.787,11.116Zm1.153-3.857a12.691,12.691,0,0,0-2.937-5.388,8.234,8.234,0,0,1,5.33-2.006h.116a8.281,8.281,0,0,1,8.16,7.395Z" transform="translate(0 -92.25)"/>
    </g>
  </g>
</svg>
