<svg xmlns="http://www.w3.org/2000/svg" width="50.577" height="33.888" viewBox="0 0 50.577 33.888">
  <defs>
    <style>
      .cls-1 {
        fill: #fff;
      }
    </style>
  </defs>
  <g id="Component_5_1" data-name="Component 5 – 1" transform="translate(0.255 0.255)">
    <path id="video-camera-alt" class="cls-1" d="M50.067,11.592V29.671A3.471,3.471,0,0,1,44.51,32.45L39.636,27.6v.4a9.4,9.4,0,0,1-9.388,9.388H9.388A9.4,9.4,0,0,1,0,27.992v-14.6A9.4,9.4,0,0,1,9.388,4H30.249a9.4,9.4,0,0,1,9.388,9.388v.328l4.758-4.8a3.494,3.494,0,0,1,3.753-.428,3.452,3.452,0,0,1,1.919,3.106ZM37.55,13.387a7.309,7.309,0,0,0-7.3-7.3H9.388a7.309,7.309,0,0,0-7.3,7.3v14.6a7.309,7.309,0,0,0,7.3,7.3H30.249a7.309,7.309,0,0,0,7.3-7.3Zm10.431-1.794a1.39,1.39,0,0,0-2.222-1.112l-6.125,6.2v7.971l6.235,6.229a1.406,1.406,0,0,0,2.109-1.206V11.592Z" transform="translate(0 -4.001)"/>
  </g>
</svg>
