<svg xmlns="http://www.w3.org/2000/svg" width="5.333" height="5.333">
    <path 
        d="M0 0a.21.21 0 0 0-.146-.087 8.184 8.184 0 0 0-.247-.025L-.57.922a2.422 2.422 0 0 1-.077.268v.003c-.069.193-.177.391-.361.523a.07.07 0 0 0-.01.102.705.705 0 0 1 .173.46c0 .033-.006.063-.01.094A.539.539 0 0 0-.3 1.831.55.55 0 0 0-.511 1.4a.07.07 0 0 1-.028-.054v-.122c0-.003.002-.005.004-.006.341-.138.468-.495.514-.776L.035.168A.21.21 0 0 0 0 0m-.624-.536a.3.3 0 0 0-.209-.119 10.573 10.573 0 0 0-.621-.025 8.782 8.782 0 0 0-.782.044.32.32 0 0 0-.215.131.416.416 0 0 0-.088.301l.194 1.096c.042.262.158.592.455.745.024.013.04.037.04.064v.108c0 .022-.01.041-.026.055a.548.548 0 0 0-.191.414c0 .3.24.543.534.543a.54.54 0 0 0 .534-.543.545.545 0 0 0-.174-.398.076.076 0 0 1-.023-.053V1.69c0-.026.015-.049.038-.062.211-.12.352-.357.437-.736l.188-1.103a.429.429 0 0 0-.091-.325m-2.054.426a8.036 8.036 0 0 0-.237.023.214.214 0 0 0-.181.255l.058.277c.044.273.168.621.495.764.005.002.008.007.008.013v.16a.017.017 0 0 1-.005.012.549.549 0 0 0-.22.437c0 .299.24.542.534.542h.015c-.005-.031-.01-.062-.01-.095 0-.17.063-.333.172-.459.026-.031.022-.079-.012-.102-.227-.159-.376-.431-.436-.799ZM.13.47c-.065.4-.236.687-.498.838-.004.002-.004.007-.001.011a.7.7 0 0 1 .223.512c0 .402-.34.727-.744.694l-.001-.002a.688.688 0 0 1-.642.452.688.688 0 0 1-.642-.453l-.004.004a.693.693 0 0 1-.735-.695c0-.192.08-.375.215-.506a.014.014 0 0 0-.002-.022c-.257-.153-.425-.437-.489-.83l-.056-.274a.367.367 0 0 1 .312-.438c.073-.009.155-.017.24-.025a.586.586 0 0 1 .121-.335.468.468 0 0 1 .321-.19c.293-.031.612-.044.798-.044.141 0 .391.008.632.025a.45.45 0 0 1 .318.176.583.583 0 0 1 .126.367c.091.008.176.016.251.026a.365.365 0 0 1 .313.438z" 
        fill="rgb(255, 255, 255)"
        transform="matrix(1.33333 0 0 -1.33333 4.707 4.094)"
    />
</svg>