<svg xmlns="http://www.w3.org/2000/svg" viewBox="0 0 30 30">
  <defs>
    <style>
      .cls-1 {
        fill: #fff;
        stroke: #fff;
      }
    </style>
  </defs>
  <path id="at" class="cls-1" d="M13.245,0a13.245,13.245,0,1,0,7.487,24.185.552.552,0,1,0-.625-.909,12.151,12.151,0,1,1,5.279-10.031V16a2.759,2.759,0,0,1-5.519,0V13.245a6.627,6.627,0,1,0-1.025,3.536A3.863,3.863,0,0,0,26.49,16V13.245A13.26,13.26,0,0,0,13.245,0Zm0,18.764a5.519,5.519,0,1,1,5.519-5.519A5.525,5.525,0,0,1,13.245,18.764Z" transform="translate(0.5 0.5)"/>
</svg>
