<svg xmlns="http://www.w3.org/2000/svg" viewBox="0 0 26.609 23.062">
  <path fill="white" d="M26.6,5.336q-.178,3.893-5.427,10.659-5.427,7.066-9.182,7.067-2.327,0-3.936-4.3Q6.976,14.813,5.9,10.867q-1.194-4.3-2.562-4.3A8.216,8.216,0,0,0,1.253,7.819L0,6.2Q1.971,4.469,3.884,2.734,6.512.459,7.826.34q3.107-.3,3.824,4.255.775,4.914,1.075,6.11.895,4.076,1.971,4.075.835,0,2.509-2.644A10.435,10.435,0,0,0,19,8.11q.238-2.282-1.792-2.284a4.968,4.968,0,0,0-1.969.437Q17.2-.175,22.731,0,26.832.126,26.6,5.336Z"/>
</svg>
