<svg width="234" height="40" viewBox="0 0 234 40" fill="none" xmlns="http://www.w3.org/2000/svg">
<path d="M17.6953 2.36719H25.5703L43.2891 39H35.4844L32.5547 32.8359H11.1562L8.32031 39H0.492188L17.6953 2.36719ZM29.625 26.7188L21.7031 10.0781L13.9922 26.7188H29.625ZM48.1172 11.3438H55.0547V13.6875C56.8984 12.6406 58.6562 11.9062 60.3281 11.4844C62.0156 11.0625 63.6641 10.8516 65.2734 10.8516C67.3828 10.8516 69.3359 11.1641 71.1328 11.7891C72.9297 12.3984 74.4844 13.3125 75.7969 14.5312C77.1094 15.75 78.1328 17.2734 78.8672 19.1016C79.6172 20.9141 79.9922 23.0156 79.9922 25.4062V39H73.0781V26.5312C73.0781 25.0156 72.8594 23.6641 72.4219 22.4766C72 21.2734 71.3828 20.2656 70.5703 19.4531C69.7734 18.625 68.7969 18 67.6406 17.5781C66.5 17.1406 65.2188 16.9219 63.7969 16.9219C63.0469 16.9219 62.2734 17 61.4766 17.1562C60.6953 17.3125 59.9219 17.5391 59.1562 17.8359C58.4062 18.1172 57.6797 18.4766 56.9766 18.9141C56.2734 19.3359 55.6328 19.8203 55.0547 20.3672V39H48.1172V11.3438ZM92.1797 7.57031C91.4922 7.57031 90.8672 7.47656 90.3047 7.28906C89.7578 7.08594 89.2891 6.82031 88.8984 6.49219C88.5078 6.14844 88.2031 5.75781 87.9844 5.32031C87.7812 4.86719 87.6797 4.39062 87.6797 3.89062C87.6797 3.375 87.7812 2.89844 87.9844 2.46094C88.2031 2.00781 88.5078 1.61719 88.8984 1.28906C89.2891 0.960938 89.7578 0.703125 90.3047 0.515625C90.8672 0.3125 91.4922 0.210938 92.1797 0.210938C92.8828 0.210938 93.5078 0.3125 94.0547 0.515625C94.6172 0.703125 95.0938 0.960938 95.4844 1.28906C95.875 1.61719 96.1719 2.00781 96.375 2.46094C96.5938 2.89844 96.7031 3.375 96.7031 3.89062C96.7031 4.39062 96.5938 4.86719 96.375 5.32031C96.1719 5.75781 95.875 6.14844 95.4844 6.49219C95.0938 6.82031 94.6172 7.08594 94.0547 7.28906C93.5078 7.47656 92.8828 7.57031 92.1797 7.57031ZM88.7109 11.3438H95.6484V39H88.7109V11.3438ZM100.523 2.36719H108.75L120.258 30.3047L131.766 2.36719H139.992L123.938 39H116.578L100.523 2.36719ZM143.32 30.2812C143.32 28.9531 143.609 27.7422 144.188 26.6484C144.766 25.5547 145.633 24.6172 146.789 23.8359C147.945 23.0391 149.383 22.4297 151.102 22.0078C152.836 21.5703 154.852 21.3516 157.148 21.3516C158.852 21.3516 160.641 21.4766 162.516 21.7266C164.406 21.9766 166.352 22.3594 168.352 22.875C168.273 22 168.008 21.1953 167.555 20.4609C167.102 19.7109 166.469 19.0703 165.656 18.5391C164.859 17.9922 163.891 17.5703 162.75 17.2734C161.625 16.9766 160.344 16.8281 158.906 16.8281C158.125 16.8281 157.266 16.875 156.328 16.9688C155.391 17.0625 154.422 17.2031 153.422 17.3906C152.422 17.5781 151.43 17.8125 150.445 18.0938C149.477 18.375 148.57 18.7109 147.727 19.1016L145.617 13.4062C146.664 13.0312 147.781 12.6875 148.969 12.375C150.172 12.0625 151.398 11.7969 152.648 11.5781C153.898 11.3438 155.148 11.1641 156.398 11.0391C157.648 10.9141 158.859 10.8516 160.031 10.8516C165.203 10.8516 169.047 12.1719 171.562 14.8125C174.078 17.4531 175.336 21.5 175.336 26.9531V39H168.398V36.3984C167.68 36.8203 166.891 37.2188 166.031 37.5938C165.188 37.9688 164.266 38.2969 163.266 38.5781C162.266 38.8594 161.188 39.0781 160.031 39.2344C158.891 39.4062 157.68 39.4922 156.398 39.4922C154.242 39.4922 152.344 39.2578 150.703 38.7891C149.078 38.3203 147.719 37.6719 146.625 36.8438C145.531 36.0156 144.703 35.0469 144.141 33.9375C143.594 32.8125 143.32 31.5938 143.32 30.2812ZM150.633 30.0469C150.633 30.5 150.75 30.9375 150.984 31.3594C151.219 31.7656 151.594 32.1328 152.109 32.4609C152.625 32.7734 153.281 33.0312 154.078 33.2344C154.891 33.4219 155.867 33.5156 157.008 33.5156C158.227 33.5156 159.406 33.4062 160.547 33.1875C161.688 32.9688 162.75 32.6797 163.734 32.3203C164.719 31.9609 165.609 31.5469 166.406 31.0781C167.203 30.6094 167.867 30.125 168.398 29.625V28.4062C167.336 28.1094 166.281 27.8594 165.234 27.6562C164.203 27.4531 163.211 27.2969 162.258 27.1875C161.32 27.0625 160.43 26.9766 159.586 26.9297C158.758 26.8828 158.031 26.8594 157.406 26.8594C156.109 26.8594 155.031 26.9453 154.172 27.1172C153.312 27.2891 152.617 27.5234 152.086 27.8203C151.555 28.1016 151.18 28.4375 150.961 28.8281C150.742 29.2188 150.633 29.625 150.633 30.0469ZM184.711 0.117188H191.648V39H184.711V0.117188ZM199.242 25.0781C199.242 23.2031 199.625 21.4141 200.391 19.7109C201.156 17.9922 202.258 16.4766 203.695 15.1641C205.133 13.8516 206.891 12.8047 208.969 12.0234C211.062 11.2422 213.438 10.8516 216.094 10.8516C218.734 10.8516 221.109 11.25 223.219 12.0469C225.344 12.8281 227.141 13.9062 228.609 15.2812C230.094 16.6562 231.227 18.2734 232.008 20.1328C232.805 21.9922 233.203 23.9844 233.203 26.1094C233.203 26.375 233.195 26.6641 233.18 26.9766C233.18 27.2734 233.164 27.5469 233.133 27.7969H206.977C207.273 28.625 207.75 29.3828 208.406 30.0703C209.078 30.7578 209.914 31.3516 210.914 31.8516C211.914 32.3516 213.07 32.7422 214.383 33.0234C215.695 33.2891 217.148 33.4219 218.742 33.4219C220.336 33.4219 221.922 33.2578 223.5 32.9297C225.078 32.5859 226.586 32.1562 228.023 31.6406L230.367 36.9375C229.461 37.3594 228.539 37.7344 227.602 38.0625C226.68 38.375 225.711 38.6406 224.695 38.8594C223.695 39.0625 222.641 39.2188 221.531 39.3281C220.438 39.4375 219.281 39.4922 218.062 39.4922C214.953 39.4922 212.227 39.1172 209.883 38.3672C207.539 37.6172 205.578 36.5938 204 35.2969C202.422 34 201.234 32.4766 200.438 30.7266C199.641 28.9766 199.242 27.0938 199.242 25.0781ZM225.844 22.3828C225.594 21.6172 225.203 20.9062 224.672 20.25C224.156 19.5781 223.508 19 222.727 18.5156C221.945 18.0156 221.039 17.625 220.008 17.3438C218.977 17.0625 217.844 16.9219 216.609 16.9219C215.297 16.9219 214.102 17.0703 213.023 17.3672C211.945 17.6641 211 18.0625 210.188 18.5625C209.375 19.0625 208.695 19.6406 208.148 20.2969C207.617 20.9531 207.227 21.6484 206.977 22.3828H225.844Z" fill="black"/>
</svg>
